<svg width="152" height="45" viewBox="0 0 152 45" fill="none" xmlns="http://www.w3.org/2000/svg">
<g clip-path="url(#clip0_1000_1671)">
<path d="M52.4985 9.42822H39.1094V44.9081H52.4985V9.42822Z" fill="#F3EDE4"/>
<path d="M52.4985 0.751953H39.1094V5.76136H52.4985V0.751953Z" fill="#F3EDE4"/>
<path d="M109.666 9.42822H96.2773V44.9081H109.666V9.42822Z" fill="#F3EDE4"/>
<path d="M109.666 0.751953H96.2773V5.76136H109.666V0.751953Z" fill="#F3EDE4"/>
<path d="M81.1608 30.3234C88.1066 26.4476 91.9312 21.5505 92.2189 12.1547V9.81462C92.2149 9.68648 92.2149 9.56031 92.209 9.43019H78.7607C79.2041 18.5658 75.7657 23.1908 69.7204 24.2356V9.42822H56.8691V44.9081H69.7204V35.4156H70.4435L78.0199 44.9081H92.5125V43.3211L81.1588 30.3234H81.1608Z" fill="#F3EDE4"/>
<path d="M24.2896 30.3234C31.2354 26.4476 35.0601 21.5505 35.3478 12.1547V9.81462C35.3438 9.68648 35.3438 9.56031 35.3379 9.43019H21.8916C22.335 18.5658 18.8965 23.1908 12.8512 24.2356V9.42822H0V44.9081H12.8512V35.4156H13.5744L21.1507 44.9081H35.6433V43.3211L24.2896 30.3234Z" fill="#F3EDE4"/>
<path d="M137.898 8.38527C133.536 8.38527 130.479 10.9738 128.146 15.3839H127.451V9.40844H113.938V44.908H127.585V25.9014C127.585 22.1439 129.604 20.0108 132.562 20.0108C135.52 20.0108 137.405 22.1439 137.405 25.9014V44.908H150.992V22.6781H151.015C151.015 13.6983 145.703 8.3833 137.902 8.3833L137.898 8.38527Z" fill="#F3EDE4"/>
</g>
<defs>
<clipPath id="clip0_1000_1671">
<rect width="151.011" height="44.1561" fill="white" transform="translate(0 0.751953)"/>
</clipPath>
</defs>
</svg>
